{
  "accessors": [
    {
      "bufferView": 1,
      "componentType": 5126,
      "count": 64,
      "max": [
        6.0,
        3.375,
        19.872051239013672
      ],
      "min": [
        -6.0,
        -3.375,
        0.0
      ],
      "type": "VEC3"
    },
    {
      "bufferView": 0,
      "componentType": 5125,
      "count": 222,
      "type": "SCALAR"
    },
    {
      "bufferView": 1,
      "byteOffset": 768,
      "componentType": 5126,
      "count": 194,
      "max": [
        6.0,
        3.375,
        19.872051239013672
      ],
      "min": [
        -6.0,
        -3.375,
        0.0
      ],
      "type": "VEC3"
    },
    {
      "bufferView": 1,
      "byteOffset": 3096,
      "componentType": 5126,
      "count": 194,
      "max": [
        1.0,
        0.9984356760978699,
        0.9984356760978699
      ],
      "min": [
        -1.0,
        -0.9984356760978699,
        -1.0
      ],
      "type": "VEC3"
    },
    {
      "bufferView": 0,
      "byteOffset": 888,
      "componentType": 5125,
      "count": 336,
      "type": "SCALAR"
    },
    {
      "bufferView": 1,
      "byteOffset": 5424,
      "componentType": 5126,
      "count": 194,
      "max": [
        6.0,
        3.375,
        19.872051239013672
      ],
      "min": [
        -6.0,
        -3.375,
        0.0
      ],
      "type": "VEC3"
    },
    {
      "bufferView": 1,
      "byteOffset": 7752,
      "componentType": 5126,
      "count": 194,
      "max": [
        1.0,
        0.9984356760978699,
        1.0
      ],
      "min": [
        -1.0,
        -0.9984356760978699,
        -0.9984356760978699
      ],
      "type": "VEC3"
    },
    {
      "bufferView": 0,
      "byteOffset": 2232,
      "componentType": 5125,
      "count": 336,
      "type": "SCALAR"
    }
  ],
  "asset": {
    "extras": {
      "author": "icantbeyoumother (https://sketchfab.com/icantbeyoumother)",
      "license": "CC-BY-4.0 (http://creativecommons.org/licenses/by/4.0/)",
      "source": "https://sketchfab.com/3d-models/shopping-bag-aef85c8873cc4511ae11a1c957c17086",
      "title": "Shopping Bag"
    },
    "generator": "Sketchfab-15.55.0",
    "version": "2.0"
  },
  "bufferViews": [
    {
      "buffer": 0,
      "byteLength": 3576,
      "name": "floatBufferViews",
      "target": 34963
    },
    {
      "buffer": 0,
      "byteLength": 10080,
      "byteOffset": 3576,
      "byteStride": 12,
      "name": "floatBufferViews",
      "target": 34962
    }
  ],
  "buffers": [
    {
      "byteLength": 13656,
      "uri": "scene.bin"
    }
  ],
  "materials": [
    {
      "name": "edge_color000255",
      "pbrMetallicRoughness": {
        "metallicFactor": 0.0,
        "roughnessFactor": 0.6
      }
    },
    {
      "name": "material",
      "pbrMetallicRoughness": {
        "metallicFactor": 0.0,
        "roughnessFactor": 0.6
      }
    },
    {
      "name": "material_0",
      "pbrMetallicRoughness": {
        "baseColorFactor": [
          0.670588,
          0.690196,
          0.8,
          1.0
        ],
        "metallicFactor": 0.0,
        "roughnessFactor": 0.6
      }
    }
  ],
  "meshes": [
    {
      "name": "Material4",
      "primitives": [
        {
          "attributes": {
            "POSITION": 0
          },
          "indices": 1,
          "material": 0,
          "mode": 1
        }
      ]
    },
    {
      "name": "Material2",
      "primitives": [
        {
          "attributes": {
            "NORMAL": 3,
            "POSITION": 2
          },
          "indices": 4,
          "material": 1,
          "mode": 4
        }
      ]
    },
    {
      "name": "Material3",
      "primitives": [
        {
          "attributes": {
            "NORMAL": 6,
            "POSITION": 5
          },
          "indices": 7,
          "material": 2,
          "mode": 4
        }
      ]
    }
  ],
  "nodes": [
    {
      "children": [
        1
      ],
      "matrix": [
        1.0,
        0.0,
        0.0,
        0.0,
        0.0,
        2.220446049250313e-16,
        -1.0,
        0.0,
        0.0,
        1.0,
        2.220446049250313e-16,
        0.0,
        0.0,
        0.0,
        0.0,
        1.0
      ],
      "name": "Sketchfab_model"
    },
    {
      "children": [
        2,
        3,
        4,
        5
      ],
      "name": "Collada visual scene group"
    },
    {
      "mesh": 0,
      "name": "Material4"
    },
    {
      "mesh": 1,
      "name": "Material2"
    },
    {
      "mesh": 2,
      "name": "Material3"
    },
    {
      "children": [
        6
      ],
      "name": "SketchUp"
    },
    {
      "children": [
        7
      ],
      "matrix": [
        -0.8239007,
        0.5667341,
        2.775558e-17,
        0.0,
        -0.06452488,
        -0.09380429,
        0.9934975,
        0.0,
        0.563049,
        0.8185433,
        0.1138539,
        0.0,
        23.0869,
        30.22581,
        13.69413,
        1.0
      ],
      "name": "skp_camera_Last_Saved_SketchUp_View"
    },
    {
      "name": "ID1"
    }
  ],
  "scene": 0,
  "scenes": [
    {
      "name": "Sketchfab_Scene",
      "nodes": [
        0
      ]
    }
  ]
}
